<svg width="165" height="32" viewBox="0 0 165 32" fill="none" xmlns="http://www.w3.org/2000/svg">
<g clip-path="url(#clip0_759_3269)">
<path d="M69.3162 8.83187V6.24756H64.5652L62.8415 15.3714H62.4078L62.3908 15.2786L60.7786 6.24756H57.2276L55.5971 15.3714H55.1634L55.1458 15.2799L53.4397 6.24756H48.6899V8.83187L50.1312 9.06803L50.1462 9.14419L52.8743 22.7391H56.8695L58.7895 13.3528H59.2199L61.1399 22.7391H65.1332L67.8769 9.06739L69.3162 8.83187Z" fill="white"/>
<path d="M112.478 7.65553C112.645 7.81956 112.842 7.94967 113.06 8.03844C113.278 8.12727 113.511 8.17297 113.747 8.17297C113.983 8.17297 114.216 8.12727 114.434 8.03844C114.652 7.94967 114.85 7.81956 115.016 7.65553C115.186 7.49265 115.321 7.29796 115.414 7.08298C115.506 6.86801 115.554 6.63703 115.554 6.40369C115.554 6.17038 115.506 5.93942 115.414 5.72442C115.321 5.50943 115.186 5.31475 115.016 5.15186C114.852 4.98462 114.655 4.8516 114.437 4.76074C114.219 4.66988 113.985 4.62305 113.748 4.62305C113.511 4.62305 113.277 4.66988 113.059 4.76074C112.842 4.8516 112.645 4.98462 112.48 5.15186C112.31 5.3148 112.175 5.50949 112.082 5.72448C111.99 5.93947 111.943 6.17041 111.943 6.40369C111.943 6.63697 111.99 6.86794 112.082 7.08292C112.175 7.29789 112.31 7.49258 112.48 7.65553H112.478Z" fill="white"/>
<path d="M128.087 10.3083H121.42C120.906 10.2726 120.391 10.338 119.904 10.5005C119.417 10.6631 118.968 10.9196 118.583 11.2548C118.242 11.6331 117.981 12.0744 117.816 12.5528C117.65 13.0314 117.584 13.5374 117.62 14.0414V17.9108C117.584 18.4168 117.651 18.9246 117.816 19.4051C117.982 19.8856 118.242 20.3291 118.583 20.7102C118.966 21.0493 119.414 21.3091 119.901 21.474C120.389 21.639 120.905 21.7057 121.419 21.6702H124.717V23.2395C124.748 23.4081 124.737 23.5816 124.684 23.745C124.632 23.9084 124.54 24.057 124.416 24.1782C124.293 24.2994 124.142 24.3896 123.976 24.4411C123.809 24.4926 123.632 24.5039 123.46 24.474H118.835V27.283H124.287C126.844 27.283 128.086 26.0536 128.086 23.5256L128.087 10.3083ZM124.718 18.8587H122.246C122.074 18.8885 121.898 18.8772 121.731 18.8257C121.564 18.7742 121.413 18.684 121.29 18.5629C121.167 18.4417 121.075 18.2931 121.022 18.1296C120.97 17.9662 120.959 17.7928 120.989 17.6241V14.3281C120.969 14.1624 120.988 13.9944 121.045 13.837C121.101 13.6796 121.193 13.537 121.315 13.42C121.436 13.3032 121.583 13.2151 121.744 13.1626C121.906 13.1101 122.078 13.0946 122.246 13.1172H124.718V18.8587Z" fill="white"/>
<path d="M154.08 19.0077C154.043 19.5119 154.11 20.018 154.275 20.4966C154.44 20.9752 154.702 21.4166 155.043 21.7949C155.428 22.1302 155.876 22.3866 156.363 22.549C156.851 22.7114 157.366 22.7767 157.879 22.7409H164.01V19.9332H158.704C158.533 19.963 158.356 19.9517 158.189 19.9002C158.023 19.8487 157.871 19.7585 157.748 19.6373C157.625 19.5162 157.533 19.3675 157.481 19.2041C157.428 19.0407 157.417 18.8673 157.447 18.6986V17.4871H164.788V13.9217C164.824 13.4179 164.758 12.9121 164.593 12.4337C164.428 11.9553 164.167 11.5141 163.826 11.1357C163.441 10.8005 162.993 10.5441 162.506 10.3815C162.018 10.2189 161.503 10.1535 160.99 10.1892H157.879C157.366 10.1535 156.851 10.2188 156.363 10.3814C155.876 10.5439 155.428 10.8004 155.043 11.1357C154.702 11.514 154.44 11.9553 154.275 12.4337C154.11 12.9122 154.043 13.4183 154.08 13.9223V19.0077ZM157.449 14.2077C157.428 14.042 157.447 13.874 157.504 13.7166C157.561 13.5592 157.653 13.4166 157.774 13.2996C157.895 13.1828 158.043 13.0946 158.204 13.0422C158.366 12.9897 158.537 12.9742 158.705 12.9969H160.164C160.332 12.9743 160.503 12.9899 160.665 13.0424C160.826 13.095 160.973 13.183 161.094 13.3C161.216 13.4168 161.308 13.5594 161.364 13.7168C161.421 13.8742 161.44 14.0421 161.42 14.2077V15.0845H157.448L157.449 14.2077Z" fill="white"/>
<path d="M152.271 20.1771V5.77002H147.587V8.09581L148.9 8.33453V10.3077H145.602C145.089 10.2719 144.573 10.3373 144.086 10.4999C143.599 10.6624 143.15 10.9189 142.765 11.2542C142.424 11.6325 142.163 12.0737 141.998 12.5522C141.832 13.0307 141.766 13.5368 141.802 14.0408V19.0078C141.766 19.5118 141.832 20.0179 141.998 20.4963C142.163 20.9748 142.424 21.4161 142.765 21.7944C143.15 22.1295 143.599 22.3859 144.086 22.5484C144.573 22.7108 145.089 22.7761 145.602 22.7403H152.269L152.271 20.1771ZM148.902 19.9326H146.431C146.259 19.9624 146.082 19.9511 145.915 19.8996C145.749 19.8481 145.598 19.758 145.475 19.6367C145.351 19.5155 145.259 19.3669 145.207 19.2035C145.154 19.0401 145.143 18.8667 145.174 18.6981V14.3275C145.154 14.1618 145.173 13.9939 145.229 13.8365C145.286 13.6791 145.379 13.5366 145.5 13.4197C145.621 13.3028 145.768 13.2147 145.929 13.1622C146.091 13.1096 146.262 13.094 146.431 13.1166H148.902V19.9326Z" fill="white"/>
<path d="M139.996 20.1769V14.0406C140.033 13.5366 139.966 13.0306 139.801 12.5521C139.635 12.0736 139.374 11.6324 139.033 11.2541C138.648 10.9189 138.2 10.6625 137.713 10.4999C137.226 10.3374 136.711 10.272 136.198 10.3075H131.232V13.1165H135.371C135.54 13.0939 135.711 13.1095 135.872 13.1621C136.034 13.2146 136.181 13.3027 136.302 13.4196C136.423 13.5364 136.516 13.679 136.573 13.8363C136.629 13.9937 136.648 14.1616 136.628 14.3273V15.2995H133.573C133.076 15.266 132.579 15.3304 132.108 15.4888C131.638 15.6471 131.204 15.8964 130.833 16.2217C130.502 16.5863 130.248 17.0123 130.087 17.4744C129.926 17.9365 129.861 18.4256 129.895 18.9129V19.1517C129.862 19.6352 129.928 20.1204 130.089 20.5785C130.25 21.0366 130.503 21.4585 130.833 21.8192C131.204 22.1445 131.638 22.3938 132.108 22.5522C132.578 22.7106 133.076 22.775 133.573 22.7414H139.996V20.1769ZM136.628 20.1955H134.52C134.352 20.2182 134.18 20.2027 134.019 20.1502C133.858 20.0977 133.71 20.0096 133.589 19.8927C133.468 19.7758 133.375 19.6331 133.319 19.4757C133.262 19.3183 133.243 19.1503 133.263 18.9846C133.243 18.8189 133.263 18.651 133.319 18.4936C133.376 18.3363 133.468 18.1937 133.59 18.0768C133.711 17.96 133.858 17.8718 134.019 17.8194C134.18 17.7668 134.352 17.7512 134.52 17.7737H136.631L136.628 20.1955Z" fill="white"/>
<path d="M112.087 20.1771V22.7415H115.455V10.3076H110.75V12.6334L112.087 12.8721V20.1771Z" fill="white"/>
<path d="M104.357 10.3077C103.842 10.2728 103.324 10.3385 102.836 10.5011C102.347 10.6637 101.895 10.9199 101.508 11.2549C101.163 11.6313 100.9 12.0719 100.732 12.5506C100.564 13.0292 100.497 13.5361 100.533 14.0408V22.7449H103.902V14.3275C103.88 14.1637 103.898 13.9972 103.952 13.8408C104.006 13.6845 104.097 13.5424 104.215 13.4255C104.334 13.3086 104.479 13.22 104.638 13.1665C104.798 13.1129 104.967 13.0959 105.134 13.1167H106.229L106.472 14.6936H108.933V10.3077H104.357Z" fill="white"/>
<path d="M97.9682 16.2807C97.8319 15.9195 97.6251 15.5874 97.361 15.3028C97.1288 15.0777 96.8673 14.884 96.5836 14.7268C96.3932 14.6098 96.1904 14.5135 95.9784 14.4394L95.6145 14.3466V13.9389L95.8825 13.8397C96.028 13.7699 96.1649 13.684 96.2908 13.5837C96.4799 13.4362 96.6534 13.2698 96.808 13.0871C97.003 12.8391 97.1484 12.5567 97.2358 12.2551C97.3577 11.8598 97.4177 11.4484 97.4125 11.0353V10.8157C97.4523 10.2012 97.3662 9.58508 97.1588 9.00389C96.9514 8.42265 96.6273 7.88818 96.206 7.43205C95.7423 7.0181 95.1984 6.69983 94.6069 6.49625C94.0153 6.29261 93.388 6.20778 92.7625 6.24678H84.6104V8.83173L86.0686 9.07045V22.7415H93.5869C94.2117 22.7807 94.8377 22.697 95.4293 22.4954C96.0208 22.2939 96.5654 21.9785 97.031 21.5677C97.453 21.1144 97.7771 20.5821 97.9845 20.0027C98.1919 19.4234 98.2773 18.809 98.2369 18.1962V17.7425C98.2447 17.2427 98.1534 16.7462 97.9682 16.2807ZM89.7325 9.31877H92.0582C92.5258 9.27685 92.9914 9.41733 93.354 9.70981C93.6521 10.0666 93.7949 10.524 93.7525 10.9834V11.1754C93.7949 11.6348 93.6521 12.0923 93.354 12.449C92.9914 12.7415 92.5258 12.882 92.0582 12.8401H89.7325V9.31877ZM94.5788 18.0055C94.6212 18.4648 94.4784 18.9222 94.181 19.2791C93.8184 19.5716 93.3527 19.7121 92.8851 19.6701H89.7325V15.9108H92.1319C92.7834 15.86 93.4382 15.9547 94.0473 16.1879C94.4053 16.3869 94.5795 16.8407 94.5795 17.5754L94.5788 18.0055Z" fill="white"/>
<path d="M81.7322 7.4321C81.2711 7.01764 80.7298 6.69898 80.1402 6.49534C79.5507 6.29176 78.9246 6.20744 78.3011 6.24748H70.1489V8.83178L71.6072 9.0705V22.7415H75.2678V17.7739H78.2985C78.922 17.8139 79.5481 17.7296 80.1376 17.526C80.7272 17.3224 81.2685 17.0038 81.7296 16.5892C82.1476 16.1312 82.4685 15.596 82.6733 15.015C82.8787 14.4339 82.9635 13.8186 82.9237 13.2049V10.8158C82.9642 10.2024 82.8794 9.58737 82.6746 9.00638C82.4698 8.42545 82.1496 7.89028 81.7322 7.4321ZM79.2663 13.0379C79.3087 13.4972 79.1659 13.9545 78.8685 14.3115C78.5059 14.6038 78.0402 14.7443 77.5726 14.7025H75.2705V9.31882H77.5726C77.8068 9.29764 78.0428 9.32382 78.2659 9.39569C78.4896 9.46756 78.695 9.58366 78.8711 9.73674C79.1691 10.1206 79.3107 10.6 79.267 11.0807L79.2663 13.0379Z" fill="white"/>
<path d="M32.6649 15.1153V11.377C32.6659 9.88392 32.3672 8.4052 31.7859 7.02536C31.2045 5.6455 30.3519 4.39153 29.2768 3.33504C28.2015 2.27855 26.9248 1.44024 25.5195 0.867967C24.1142 0.2957 22.6077 0.000680058 21.0862 -0.000244141H15.662C12.5893 0.00196172 9.64333 1.20184 7.47205 3.33545C5.3008 5.46907 4.08208 8.36168 4.08399 11.377V15.1153L18.3744 18.7601L32.6649 15.1153ZM12.366 7.70984L16.5777 7.1108L18.3973 3.3988L20.2168 7.1108L24.3829 7.70984L21.3718 10.5969L22.0814 14.6814L18.3973 12.7511L14.6675 14.6814L15.377 10.5969L12.366 7.70984Z" fill="white"/>
<path d="M18.3743 22.0568L0 17.3733V20.652L18.3743 25.3394L36.7487 20.652V17.3733L18.3743 22.0568Z" fill="white"/>
<path d="M0 23.9358V27.2145L18.3743 31.9038L36.7487 27.2164V23.9358L18.3743 28.6206L0 23.9358Z" fill="white"/>
</g>
<defs>
<clipPath id="clip0_759_3269">
<rect width="165" height="32" fill="white" transform="translate(0 -0.000244141)"/>
</clipPath>
</defs>
</svg>
